<svg width="1200" height="700" viewBox="0 0 1200 700" fill="none" xmlns="http://www.w3.org/2000/svg">
  <defs>
    <linearGradient id="bg" x1="0" y1="0" x2="1200" y2="700" gradientUnits="userSpaceOnUse">
      <stop stop-color="#0C1217"/>
      <stop offset="1" stop-color="#15202A"/>
    </linearGradient>
    <linearGradient id="panel" x1="170" y1="120" x2="1030" y2="580" gradientUnits="userSpaceOnUse">
      <stop stop-color="#121B24"/>
      <stop offset="1" stop-color="#0A1319"/>
    </linearGradient>
    <linearGradient id="accent" x1="320" y1="170" x2="910" y2="550" gradientUnits="userSpaceOnUse">
      <stop stop-color="#5ED7CF"/>
      <stop offset="1" stop-color="#9DEDE8"/>
    </linearGradient>
  </defs>
  <rect width="1200" height="700" rx="42" fill="url(#bg)"/>
  <circle cx="950" cy="160" r="130" fill="#5ED7CF" fill-opacity="0.06"/>
  <circle cx="260" cy="540" r="155" fill="#5ED7CF" fill-opacity="0.05"/>
  <rect x="120" y="105" width="960" height="500" rx="34" fill="url(#panel)" stroke="#293B46" stroke-opacity="0.7"/>
  <g>
    <rect x="200" y="175" width="160" height="120" rx="24" fill="#0E1720" stroke="#29404D"/>
    <rect x="520" y="175" width="160" height="120" rx="24" fill="#0E1720" stroke="#29404D"/>
    <rect x="840" y="175" width="160" height="120" rx="24" fill="#0E1720" stroke="#29404D"/>
    <rect x="360" y="400" width="160" height="120" rx="24" fill="#0E1720" stroke="#29404D"/>
    <rect x="680" y="400" width="160" height="120" rx="24" fill="#0E1720" stroke="#29404D"/>
  </g>
  <path d="M360 235H520" stroke="url(#accent)" stroke-width="10" stroke-linecap="round"/>
  <path d="M680 235H840" stroke="url(#accent)" stroke-width="10" stroke-linecap="round"/>
  <path d="M440 295V400" stroke="url(#accent)" stroke-width="10" stroke-linecap="round"/>
  <path d="M760 295V400" stroke="url(#accent)" stroke-width="10" stroke-linecap="round"/>
  <path d="M520 460H680" stroke="url(#accent)" stroke-width="10" stroke-linecap="round"/>
  <circle cx="440" cy="235" r="22" fill="#5ED7CF" fill-opacity="0.2" stroke="#5ED7CF"/>
  <circle cx="760" cy="235" r="22" fill="#5ED7CF" fill-opacity="0.2" stroke="#5ED7CF"/>
  <circle cx="520" cy="460" r="22" fill="#5ED7CF" fill-opacity="0.2" stroke="#5ED7CF"/>
  <circle cx="680" cy="460" r="22" fill="#5ED7CF" fill-opacity="0.2" stroke="#5ED7CF"/>
  <g transform="translate(930 422)">
    <circle cx="0" cy="0" r="70" fill="#5ED7CF" fill-opacity="0.10" stroke="#5ED7CF" stroke-opacity="0.7" stroke-width="2"/>
    <path d="M0 -34L12 -10L38 -8L19 9L24 34L0 20L-24 34L-19 9L-38 -8L-12 -10L0 -34Z" fill="#DDE7ED" fill-opacity="0.92"/>
  </g>
  <text x="170" y="560" fill="#DDE7ED" fill-opacity="0.92" font-family="Inter, Arial, sans-serif" font-size="34" font-weight="700" letter-spacing="3">AUTOMATION FLOW</text>
</svg>
