<svg width="1200" height="700" viewBox="0 0 1200 700" fill="none" xmlns="http://www.w3.org/2000/svg">
  <defs>
    <linearGradient id="bg" x1="0" y1="0" x2="1200" y2="700" gradientUnits="userSpaceOnUse">
      <stop stop-color="#0C1217"/>
      <stop offset="1" stop-color="#161F29"/>
    </linearGradient>
    <linearGradient id="terminal" x1="170" y1="130" x2="1030" y2="580" gradientUnits="userSpaceOnUse">
      <stop stop-color="#111A22"/>
      <stop offset="1" stop-color="#0A131A"/>
    </linearGradient>
    <linearGradient id="accent" x1="320" y1="180" x2="940" y2="530" gradientUnits="userSpaceOnUse">
      <stop stop-color="#5ED7CF"/>
      <stop offset="1" stop-color="#9DEDE8"/>
    </linearGradient>
  </defs>
  <rect width="1200" height="700" rx="42" fill="url(#bg)"/>
  <circle cx="930" cy="170" r="130" fill="#5ED7CF" fill-opacity="0.07"/>
  <circle cx="250" cy="525" r="155" fill="#5ED7CF" fill-opacity="0.05"/>
  <rect x="110" y="100" width="980" height="500" rx="34" fill="url(#terminal)" stroke="#2A3D49" stroke-opacity="0.7"/>
  <rect x="110" y="100" width="980" height="64" rx="34" fill="#0C151D" stroke="#2A3D49" stroke-opacity="0.7"/>
  <circle cx="172" cy="132" r="11" fill="#5ED7CF"/>
  <circle cx="210" cy="132" r="11" fill="#9DEDE8" fill-opacity="0.65"/>
  <circle cx="248" cy="132" r="11" fill="#DCECEF" fill-opacity="0.35"/>
  <rect x="165" y="205" width="870" height="18" rx="9" fill="#263844"/>
  <rect x="165" y="250" width="500" height="18" rx="9" fill="#263844"/>
  <rect x="165" y="295" width="640" height="18" rx="9" fill="#263844"/>
  <rect x="165" y="340" width="430" height="18" rx="9" fill="#263844"/>
  <rect x="165" y="385" width="760" height="18" rx="9" fill="#263844"/>
  <rect x="165" y="430" width="370" height="18" rx="9" fill="#263844"/>
  <path d="M164 485H1030" stroke="url(#accent)" stroke-width="12" stroke-linecap="round" stroke-dasharray="28 20"/>
  <path d="M780 250C827 250 858 283 858 326C858 368 827 402 780 402C734 402 702 368 702 326C702 283 734 250 780 250Z" fill="#5ED7CF" fill-opacity="0.08" stroke="#5ED7CF" stroke-opacity="0.7"/>
  <path d="M760 290L742 326L760 362" stroke="#9DEDE8" stroke-width="14" stroke-linecap="round" stroke-linejoin="round"/>
  <path d="M800 290L818 326L800 362" stroke="#9DEDE8" stroke-width="14" stroke-linecap="round" stroke-linejoin="round"/>
  <text x="170" y="560" fill="#DDE7ED" fill-opacity="0.92" font-family="Inter, Arial, sans-serif" font-size="34" font-weight="700" letter-spacing="3">PYTHON WORKFLOW</text>
</svg>
