<svg width="1200" height="800" viewBox="0 0 1200 800" fill="none" xmlns="http://www.w3.org/2000/svg">
  <defs>
    <linearGradient id="bg" x1="150" y1="100" x2="1050" y2="700">
      <stop stop-color="#081018"/>
      <stop offset="1" stop-color="#111821"/>
    </linearGradient>
    <filter id="blur" x="-20%" y="-20%" width="140%" height="140%">
      <feGaussianBlur stdDeviation="24"/>
    </filter>
  </defs>
  <rect width="1200" height="800" rx="44" fill="url(#bg)"/>
  <circle cx="980" cy="170" r="140" fill="#FFC86B" fill-opacity=".12" filter="url(#blur)"/>
  <rect x="136" y="120" width="928" height="560" rx="34" fill="#111922" stroke="rgba(255,255,255,.10)"/>
  <rect x="168" y="154" width="864" height="50" rx="18" fill="#0D141A"/>
  <circle cx="203" cy="179" r="10" fill="#FF6A6A"/><circle cx="231" cy="179" r="10" fill="#FFC86B"/><circle cx="259" cy="179" r="10" fill="#4EE0A1"/>
  <rect x="198" y="250" width="330" height="320" rx="24" fill="#0D141A" stroke="rgba(255,255,255,.08)"/>
  <rect x="556" y="250" width="352" height="320" rx="24" fill="#0D141A" stroke="rgba(255,255,255,.08)"/>
  <circle cx="362" cy="382" r="86" fill="#FFC86B" fill-opacity=".22"/>
  <circle cx="332" cy="362" r="34" fill="#EAF2F5"/>
  <circle cx="382" cy="346" r="42" fill="#EAF2F5"/>
  <rect x="298" y="416" width="122" height="30" rx="15" fill="#EAF2F5"/>
  <rect x="598" y="300" width="214" height="22" rx="11" fill="#EAF2F5" fill-opacity=".8"/>
  <rect x="598" y="342" width="160" height="14" rx="7" fill="#8CA0AE" fill-opacity=".32"/>
  <rect x="598" y="400" width="94" height="102" rx="18" fill="#5AD3C7" fill-opacity=".20"/>
  <rect x="710" y="400" width="94" height="102" rx="18" fill="#7CB4FF" fill-opacity=".18"/>
  <rect x="822" y="400" width="62" height="102" rx="18" fill="#FFC86B" fill-opacity=".18"/>
  <text x="170" y="96" fill="#EAF2F5" font-family="Arial, Helvetica, sans-serif" font-size="34" font-weight="700">weather_forecast</text>
  <text x="170" y="126" fill="#8CA0AE" font-family="Arial, Helvetica, sans-serif" font-size="16">Real-time weather data from open APIs for local forecasts.</text>
</svg>
