<svg width="1200" height="800" viewBox="0 0 1200 800" fill="none" xmlns="http://www.w3.org/2000/svg">
  <defs>
    <linearGradient id="bg" x1="120" y1="60" x2="1100" y2="740">
      <stop stop-color="#081018"/>
      <stop offset="1" stop-color="#121720"/>
    </linearGradient>
    <filter id="blur" x="-20%" y="-20%" width="140%" height="140%">
      <feGaussianBlur stdDeviation="30"/>
    </filter>
  </defs>
  <rect width="1200" height="800" rx="44" fill="url(#bg)"/>
  <circle cx="1000" cy="150" r="140" fill="#5AD3C7" fill-opacity=".12" filter="url(#blur)"/>
  <rect x="120" y="120" width="960" height="560" rx="34" fill="#111A23" stroke="rgba(255,255,255,.10)"/>
  <rect x="152" y="154" width="896" height="50" rx="18" fill="#0D141A"/>
  <circle cx="187" cy="179" r="10" fill="#FF6A6A"/><circle cx="215" cy="179" r="10" fill="#FFC86B"/><circle cx="243" cy="179" r="10" fill="#4EE0A1"/>
  <rect x="170" y="240" width="240" height="360" rx="24" fill="#0D141A" stroke="rgba(255,255,255,.08)"/>
  <rect x="434" y="240" width="616" height="160" rx="24" fill="#0D141A" stroke="rgba(255,255,255,.08)"/>
  <rect x="434" y="424" width="296" height="176" rx="24" fill="#0D141A" stroke="rgba(255,255,255,.08)"/>
  <rect x="754" y="424" width="296" height="176" rx="24" fill="#0D141A" stroke="rgba(255,255,255,.08)"/>
  <path d="M214 290h128M214 332h96M214 374h116M214 416h132M214 458h106M214 500h118" stroke="#5AD3C7" stroke-width="12" stroke-linecap="round"/>
  <rect x="466" y="278" width="170" height="22" rx="11" fill="#EAF2F5" fill-opacity=".82"/>
  <rect x="466" y="320" width="490" height="14" rx="7" fill="#8CA0AE" fill-opacity=".34"/>
  <rect x="466" y="352" width="430" height="14" rx="7" fill="#8CA0AE" fill-opacity=".24"/>
  <rect x="466" y="460" width="130" height="72" rx="18" fill="#5AD3C7" fill-opacity=".22"/>
  <rect x="626" y="460" width="130" height="72" rx="18" fill="#7CB4FF" fill-opacity=".22"/>
  <rect x="786" y="460" width="190" height="24" rx="12" fill="#5AD3C7" fill-opacity=".24"/>
  <rect x="786" y="502" width="150" height="24" rx="12" fill="#7CB4FF" fill-opacity=".18"/>
  <rect x="786" y="544" width="126" height="24" rx="12" fill="#5AD3C7" fill-opacity=".18"/>
  <text x="170" y="96" fill="#EAF2F5" font-family="Arial, Helvetica, sans-serif" font-size="34" font-weight="700">ciet_erp</text>
  <text x="170" y="126" fill="#8CA0AE" font-family="Arial, Helvetica, sans-serif" font-size="16">College ERP portal for academic operations and student data.</text>
</svg>
