<svg width="1200" height="700" viewBox="0 0 1200 700" fill="none" xmlns="http://www.w3.org/2000/svg">
  <defs>
    <linearGradient id="bg" x1="0" y1="0" x2="1200" y2="700" gradientUnits="userSpaceOnUse">
      <stop stop-color="#0C1217"/>
      <stop offset="1" stop-color="#14222C"/>
    </linearGradient>
    <linearGradient id="panel" x1="180" y1="110" x2="1020" y2="590" gradientUnits="userSpaceOnUse">
      <stop stop-color="#18232E"/>
      <stop offset="1" stop-color="#0F1A22"/>
    </linearGradient>
    <linearGradient id="accent" x1="280" y1="170" x2="920" y2="560" gradientUnits="userSpaceOnUse">
      <stop stop-color="#5ED7CF"/>
      <stop offset="1" stop-color="#86E7E0"/>
    </linearGradient>
    <filter id="glow" x="-40%" y="-40%" width="180%" height="180%">
      <feGaussianBlur stdDeviation="18" result="blur"/>
      <feColorMatrix in="blur" type="matrix" values="0 0 0 0 0.368 0 0 0 0 0.843 0 0 0 0 0.812 0 0 0 0.55 0"/>
    </filter>
  </defs>
  <rect width="1200" height="700" rx="42" fill="url(#bg)"/>
  <circle cx="955" cy="165" r="120" fill="#5ED7CF" fill-opacity="0.08"/>
  <circle cx="265" cy="560" r="150" fill="#5ED7CF" fill-opacity="0.06"/>
  <rect x="120" y="110" width="960" height="480" rx="34" fill="url(#panel)" stroke="#28404D" stroke-opacity="0.65"/>
  <rect x="160" y="150" width="880" height="54" rx="16" fill="#0F1820" stroke="#2C4652"/>
  <circle cx="206" cy="177" r="10" fill="#5ED7CF"/>
  <circle cx="242" cy="177" r="10" fill="#86E7E0" fill-opacity="0.65"/>
  <circle cx="278" cy="177" r="10" fill="#D7F8F4" fill-opacity="0.35"/>
  <rect x="165" y="240" width="360" height="300" rx="24" fill="#0D151C" stroke="#223540"/>
  <rect x="560" y="240" width="480" height="300" rx="24" fill="#0D151C" stroke="#223540"/>
  <rect x="205" y="280" width="280" height="18" rx="9" fill="#243743"/>
  <rect x="205" y="320" width="210" height="18" rx="9" fill="#243743"/>
  <rect x="205" y="360" width="250" height="18" rx="9" fill="#243743"/>
  <rect x="205" y="400" width="180" height="18" rx="9" fill="#243743"/>
  <rect x="205" y="450" width="140" height="44" rx="14" fill="url(#accent)" fill-opacity="0.16"/>
  <rect x="600" y="290" width="390" height="18" rx="9" fill="#243743"/>
  <rect x="600" y="330" width="290" height="18" rx="9" fill="#243743"/>
  <rect x="600" y="370" width="340" height="18" rx="9" fill="#243743"/>
  <rect x="600" y="410" width="240" height="18" rx="9" fill="#243743"/>
  <path d="M613 468H922" stroke="url(#accent)" stroke-width="12" stroke-linecap="round"/>
  <path d="M615 468L652 430" stroke="#86E7E0" stroke-width="12" stroke-linecap="round"/>
  <path d="M690 468L727 430" stroke="#86E7E0" stroke-width="12" stroke-linecap="round"/>
  <path d="M765 468L802 430" stroke="#86E7E0" stroke-width="12" stroke-linecap="round"/>
  <path d="M840 468L877 430" stroke="#86E7E0" stroke-width="12" stroke-linecap="round"/>
  <g filter="url(#glow)">
    <rect x="592" y="274" width="130" height="18" rx="9" fill="#5ED7CF"/>
    <rect x="732" y="274" width="92" height="18" rx="9" fill="#5ED7CF" fill-opacity="0.72"/>
    <rect x="834" y="274" width="110" height="18" rx="9" fill="#5ED7CF" fill-opacity="0.42"/>
  </g>
  <text x="160" y="610" fill="#DDE7ED" fill-opacity="0.92" font-family="Inter, Arial, sans-serif" font-size="34" font-weight="700" letter-spacing="3">WEB INTERFACE</text>
</svg>
