<svg width="1200" height="800" viewBox="0 0 1200 800" fill="none" xmlns="http://www.w3.org/2000/svg">
  <defs>
    <linearGradient id="bg" x1="140" y1="100" x2="1080" y2="700">
      <stop stop-color="#091017"/>
      <stop offset="1" stop-color="#111822"/>
    </linearGradient>
    <filter id="blur" x="-20%" y="-20%" width="140%" height="140%">
      <feGaussianBlur stdDeviation="24"/>
    </filter>
  </defs>
  <rect width="1200" height="800" rx="44" fill="url(#bg)"/>
  <circle cx="950" cy="160" r="130" fill="#4EE0A1" fill-opacity=".11" filter="url(#blur)"/>
  <rect x="136" y="120" width="928" height="560" rx="34" fill="#111922" stroke="rgba(255,255,255,.10)"/>
  <rect x="168" y="154" width="864" height="50" rx="18" fill="#0D141A"/>
  <circle cx="203" cy="179" r="10" fill="#FF6A6A"/><circle cx="231" cy="179" r="10" fill="#FFC86B"/><circle cx="259" cy="179" r="10" fill="#4EE0A1"/>
  <rect x="198" y="250" width="280" height="320" rx="24" fill="#0D141A" stroke="rgba(255,255,255,.08)"/>
  <rect x="514" y="250" width="214" height="320" rx="24" fill="#0D141A" stroke="rgba(255,255,255,.08)"/>
  <rect x="762" y="250" width="270" height="320" rx="24" fill="#0D141A" stroke="rgba(255,255,255,.08)"/>
  <path d="M242 522c30-54 62-102 98-102 56 0 60 108 118 108 38 0 60-28 90-68" stroke="#4EE0A1" stroke-width="12" stroke-linecap="round" stroke-linejoin="round"/>
  <circle cx="242" cy="522" r="14" fill="#4EE0A1"/>
  <circle cx="340" cy="420" r="14" fill="#7CB4FF"/>
  <circle cx="458" cy="528" r="14" fill="#5AD3C7"/>
  <rect x="546" y="302" width="126" height="18" rx="9" fill="#5AD3C7" fill-opacity=".24"/>
  <rect x="546" y="340" width="76" height="120" rx="16" fill="#7CB4FF" fill-opacity=".18"/>
  <rect x="576" y="520" width="18" height="22" rx="9" fill="#4EE0A1"/>
  <rect x="818" y="298" width="164" height="18" rx="9" fill="#EAF2F5" fill-opacity=".78"/>
  <rect x="818" y="334" width="128" height="14" rx="7" fill="#8CA0AE" fill-opacity=".30"/>
  <rect x="818" y="386" width="158" height="48" rx="18" fill="#4EE0A1" fill-opacity=".18"/>
  <rect x="818" y="456" width="124" height="48" rx="18" fill="#7CB4FF" fill-opacity=".16"/>
  <text x="170" y="96" fill="#EAF2F5" font-family="Arial, Helvetica, sans-serif" font-size="34" font-weight="700">feedback_monitoring_system</text>
  <text x="170" y="126" fill="#8CA0AE" font-family="Arial, Helvetica, sans-serif" font-size="16">Feedback collection, analytics, and reporting for improvements.</text>
</svg>
