<svg width="1200" height="800" viewBox="0 0 1200 800" fill="none" xmlns="http://www.w3.org/2000/svg">
  <defs>
    <linearGradient id="bg" x1="150" y1="90" x2="1050" y2="730">
      <stop stop-color="#081018"/>
      <stop offset="1" stop-color="#10141E"/>
    </linearGradient>
    <filter id="blur" x="-20%" y="-20%" width="140%" height="140%">
      <feGaussianBlur stdDeviation="24"/>
    </filter>
  </defs>
  <rect width="1200" height="800" rx="44" fill="url(#bg)"/>
  <circle cx="260" cy="180" r="120" fill="#5AD3C7" fill-opacity=".12" filter="url(#blur)"/>
  <rect x="134" y="120" width="932" height="560" rx="34" fill="#111922" stroke="rgba(255,255,255,.10)"/>
  <rect x="166" y="154" width="868" height="50" rx="18" fill="#0D141A"/>
  <circle cx="201" cy="179" r="10" fill="#FF6A6A"/><circle cx="229" cy="179" r="10" fill="#FFC86B"/><circle cx="257" cy="179" r="10" fill="#4EE0A1"/>
  <rect x="196" y="248" width="308" height="322" rx="24" fill="#0D141A" stroke="rgba(255,255,255,.08)"/>
  <rect x="534" y="248" width="398" height="322" rx="24" fill="#0D141A" stroke="rgba(255,255,255,.08)"/>
  <circle cx="700" cy="410" r="116" fill="#5AD3C7" fill-opacity=".15" stroke="#5AD3C7" stroke-opacity=".45" stroke-width="5"/>
  <circle cx="700" cy="410" r="54" fill="#7CB4FF" fill-opacity=".18" stroke="#7CB4FF" stroke-width="4"/>
  <path d="M700 294v232M584 410h232M620 330l160 160M780 330 620 490" stroke="#8CA0AE" stroke-opacity=".34" stroke-width="4"/>
  <rect x="234" y="292" width="214" height="18" rx="9" fill="#EAF2F5" fill-opacity=".8"/>
  <rect x="234" y="328" width="150" height="14" rx="7" fill="#8CA0AE" fill-opacity=".3"/>
  <rect x="234" y="378" width="230" height="18" rx="9" fill="#5AD3C7" fill-opacity=".22"/>
  <rect x="234" y="414" width="180" height="18" rx="9" fill="#7CB4FF" fill-opacity=".20"/>
  <rect x="234" y="478" width="238" height="18" rx="9" fill="#5AD3C7" fill-opacity=".18"/>
  <text x="170" y="96" fill="#EAF2F5" font-family="Arial, Helvetica, sans-serif" font-size="34" font-weight="700">Automation-Researcher</text>
  <text x="170" y="126" fill="#8CA0AE" font-family="Arial, Helvetica, sans-serif" font-size="16">Gen AI project for automated research and data synthesis.</text>
</svg>
