<svg width="1200" height="800" viewBox="0 0 1200 800" fill="none" xmlns="http://www.w3.org/2000/svg">
  <defs>
    <linearGradient id="bg" x1="150" y1="90" x2="1050" y2="730">
      <stop stop-color="#081018"/>
      <stop offset="1" stop-color="#111821"/>
    </linearGradient>
    <filter id="blur" x="-20%" y="-20%" width="140%" height="140%">
      <feGaussianBlur stdDeviation="24"/>
    </filter>
  </defs>
  <rect width="1200" height="800" rx="44" fill="url(#bg)"/>
  <circle cx="280" cy="180" r="120" fill="#5AD3C7" fill-opacity=".12" filter="url(#blur)"/>
  <rect x="136" y="120" width="928" height="560" rx="34" fill="#111922" stroke="rgba(255,255,255,.10)"/>
  <rect x="168" y="154" width="864" height="50" rx="18" fill="#0D141A"/>
  <circle cx="203" cy="179" r="10" fill="#FF6A6A"/><circle cx="231" cy="179" r="10" fill="#FFC86B"/><circle cx="259" cy="179" r="10" fill="#4EE0A1"/>
  <rect x="206" y="250" width="300" height="320" rx="24" fill="#0D141A" stroke="rgba(255,255,255,.08)"/>
  <rect x="540" y="250" width="370" height="320" rx="24" fill="#0D141A" stroke="rgba(255,255,255,.08)"/>
  <rect x="242" y="286" width="228" height="228" rx="22" fill="#EAF2F5"/>
  <rect x="260" y="304" width="26" height="26" fill="#111922"/>
  <rect x="296" y="304" width="26" height="26" fill="#111922"/>
  <rect x="332" y="304" width="26" height="26" fill="#111922"/>
  <rect x="368" y="304" width="26" height="26" fill="#111922"/>
  <rect x="404" y="304" width="26" height="26" fill="#111922"/>
  <rect x="260" y="340" width="26" height="26" fill="#111922"/>
  <rect x="332" y="340" width="26" height="26" fill="#111922"/>
  <rect x="368" y="340" width="26" height="26" fill="#111922"/>
  <rect x="404" y="340" width="26" height="26" fill="#111922"/>
  <rect x="260" y="376" width="26" height="26" fill="#111922"/>
  <rect x="296" y="376" width="26" height="26" fill="#111922"/>
  <rect x="404" y="376" width="26" height="26" fill="#111922"/>
  <rect x="260" y="412" width="26" height="26" fill="#111922"/>
  <rect x="296" y="412" width="26" height="26" fill="#111922"/>
  <rect x="332" y="412" width="26" height="26" fill="#111922"/>
  <rect x="368" y="412" width="26" height="26" fill="#111922"/>
  <rect x="404" y="412" width="26" height="26" fill="#111922"/>
  <rect x="578" y="292" width="246" height="24" rx="12" fill="#5AD3C7" fill-opacity=".24"/>
  <rect x="578" y="336" width="196" height="14" rx="7" fill="#8CA0AE" fill-opacity=".30"/>
  <rect x="578" y="372" width="230" height="14" rx="7" fill="#8CA0AE" fill-opacity=".22"/>
  <rect x="578" y="438" width="240" height="72" rx="18" fill="#7CB4FF" fill-opacity=".18"/>
  <text x="170" y="96" fill="#EAF2F5" font-family="Arial, Helvetica, sans-serif" font-size="34" font-weight="700">QR-Generator</text>
  <text x="170" y="126" fill="#8CA0AE" font-family="Arial, Helvetica, sans-serif" font-size="16">Custom QR code generation for URLs, text, and contact info.</text>
</svg>
