<svg width="1200" height="800" viewBox="0 0 1200 800" fill="none" xmlns="http://www.w3.org/2000/svg">
  <defs>
    <linearGradient id="bg" x1="0" y1="0" x2="1200" y2="800">
      <stop stop-color="#091015"/>
      <stop offset="1" stop-color="#111b23"/>
    </linearGradient>
    <linearGradient id="accent" x1="300" y1="180" x2="900" y2="620">
      <stop stop-color="#5AD3C7"/>
      <stop offset="1" stop-color="#7CB4FF"/>
    </linearGradient>
    <filter id="blur" x="-20%" y="-20%" width="140%" height="140%">
      <feGaussianBlur stdDeviation="28"/>
    </filter>
  </defs>
  <rect width="1200" height="800" rx="44" fill="url(#bg)"/>
  <circle cx="260" cy="180" r="120" fill="#5AD3C7" fill-opacity=".16" filter="url(#blur)"/>
  <circle cx="950" cy="170" r="150" fill="#7CB4FF" fill-opacity=".12" filter="url(#blur)"/>
  <rect x="140" y="110" width="920" height="580" rx="34" fill="#111922" stroke="rgba(255,255,255,.12)"/>
  <rect x="170" y="145" width="860" height="50" rx="18" fill="#0D141A" stroke="rgba(255,255,255,.08)"/>
  <circle cx="205" cy="170" r="10" fill="#FF6A6A"/>
  <circle cx="233" cy="170" r="10" fill="#FFC86B"/>
  <circle cx="261" cy="170" r="10" fill="#4EE0A1"/>
  <rect x="170" y="225" width="420" height="390" rx="26" fill="url(#accent)" fill-opacity=".12" stroke="rgba(255,255,255,.08)"/>
  <rect x="635" y="225" width="395" height="180" rx="26" fill="#0D141A" stroke="rgba(255,255,255,.08)"/>
  <rect x="635" y="431" width="182" height="184" rx="26" fill="#0D141A" stroke="rgba(255,255,255,.08)"/>
  <rect x="846" y="431" width="184" height="184" rx="26" fill="#0D141A" stroke="rgba(255,255,255,.08)"/>
  <rect x="220" y="290" width="210" height="18" rx="9" fill="white" fill-opacity=".8"/>
  <rect x="220" y="330" width="300" height="12" rx="6" fill="white" fill-opacity=".34"/>
  <rect x="220" y="360" width="250" height="12" rx="6" fill="white" fill-opacity=".24"/>
  <rect x="220" y="430" width="135" height="58" rx="18" fill="#5AD3C7" fill-opacity=".24"/>
  <rect x="374" y="430" width="135" height="58" rx="18" fill="#7CB4FF" fill-opacity=".24"/>
  <rect x="220" y="520" width="295" height="22" rx="11" fill="#5AD3C7" fill-opacity=".28"/>
  <rect x="220" y="556" width="260" height="22" rx="11" fill="#7CB4FF" fill-opacity=".22"/>
  <path d="M676 288h130M676 324h195" stroke="#5AD3C7" stroke-width="16" stroke-linecap="round"/>
  <path d="M686 465h90M686 506h74M686 547h105" stroke="#7CB4FF" stroke-width="12" stroke-linecap="round"/>
  <path d="M894 465h82M894 505h96M894 546h64" stroke="#5AD3C7" stroke-width="12" stroke-linecap="round"/>
  <text x="170" y="96" fill="#EAF2F5" font-family="Arial, Helvetica, sans-serif" font-size="34" font-weight="700">kotesh-portfolio</text>
  <text x="170" y="126" fill="#8CA0AE" font-family="Arial, Helvetica, sans-serif" font-size="16">Personal portfolio showcasing projects, skills, and experience.</text>
</svg>
