<svg width="1200" height="800" viewBox="0 0 1200 800" fill="none" xmlns="http://www.w3.org/2000/svg">
  <defs>
    <linearGradient id="bg" x1="180" y1="80" x2="1040" y2="740">
      <stop stop-color="#081018"/>
      <stop offset="1" stop-color="#0F171D"/>
    </linearGradient>
    <filter id="blur" x="-20%" y="-20%" width="140%" height="140%">
      <feGaussianBlur stdDeviation="26"/>
    </filter>
  </defs>
  <rect width="1200" height="800" rx="44" fill="url(#bg)"/>
  <circle cx="980" cy="185" r="150" fill="#4EE0A1" fill-opacity=".11" filter="url(#blur)"/>
  <rect x="140" y="118" width="920" height="564" rx="34" fill="#101922" stroke="rgba(255,255,255,.10)"/>
  <rect x="170" y="152" width="860" height="50" rx="18" fill="#0D141A"/>
  <circle cx="205" cy="177" r="10" fill="#FF6A6A"/><circle cx="233" cy="177" r="10" fill="#FFC86B"/><circle cx="261" cy="177" r="10" fill="#4EE0A1"/>
  <rect x="206" y="250" width="180" height="110" rx="22" fill="#0D141A" stroke="rgba(255,255,255,.08)"/>
  <rect x="520" y="250" width="180" height="110" rx="22" fill="#0D141A" stroke="rgba(255,255,255,.08)"/>
  <rect x="834" y="250" width="180" height="110" rx="22" fill="#0D141A" stroke="rgba(255,255,255,.08)"/>
  <rect x="372" y="490" width="450" height="104" rx="24" fill="#0D141A" stroke="rgba(255,255,255,.08)"/>
  <path d="M296 360v120h220" stroke="#4EE0A1" stroke-width="10" stroke-linecap="round" stroke-linejoin="round"/>
  <path d="M610 360v120" stroke="#5AD3C7" stroke-width="10" stroke-linecap="round" stroke-linejoin="round"/>
  <path d="M924 360v120h-148" stroke="#7CB4FF" stroke-width="10" stroke-linecap="round" stroke-linejoin="round"/>
  <circle cx="296" cy="360" r="32" fill="#4EE0A1" fill-opacity=".22" stroke="#4EE0A1" stroke-width="3"/>
  <circle cx="610" cy="360" r="32" fill="#5AD3C7" fill-opacity=".22" stroke="#5AD3C7" stroke-width="3"/>
  <circle cx="924" cy="360" r="32" fill="#7CB4FF" fill-opacity=".22" stroke="#7CB4FF" stroke-width="3"/>
  <circle cx="598" cy="542" r="30" fill="#4EE0A1" fill-opacity=".20" stroke="#4EE0A1" stroke-width="3"/>
  <path d="M420 540h290" stroke="#8CA0AE" stroke-width="14" stroke-linecap="round"/>
  <path d="M420 572h210" stroke="#5AD3C7" stroke-width="14" stroke-linecap="round"/>
  <text x="170" y="96" fill="#EAF2F5" font-family="Arial, Helvetica, sans-serif" font-size="34" font-weight="700">Automation_System</text>
  <text x="170" y="126" fill="#8CA0AE" font-family="Arial, Helvetica, sans-serif" font-size="16">Automated workflow system designed to streamline repetitive tasks.</text>
</svg>
