<svg width="1200" height="800" viewBox="0 0 1200 800" fill="none" xmlns="http://www.w3.org/2000/svg">
  <defs>
    <linearGradient id="bg" x1="140" y1="100" x2="1080" y2="700">
      <stop stop-color="#081018"/>
      <stop offset="1" stop-color="#111822"/>
    </linearGradient>
    <filter id="blur" x="-20%" y="-20%" width="140%" height="140%">
      <feGaussianBlur stdDeviation="24"/>
    </filter>
  </defs>
  <rect width="1200" height="800" rx="44" fill="url(#bg)"/>
  <circle cx="960" cy="160" r="130" fill="#4EE0A1" fill-opacity=".11" filter="url(#blur)"/>
  <rect x="136" y="120" width="928" height="560" rx="34" fill="#111922" stroke="rgba(255,255,255,.10)"/>
  <rect x="168" y="154" width="864" height="50" rx="18" fill="#0D141A"/>
  <circle cx="203" cy="179" r="10" fill="#FF6A6A"/><circle cx="231" cy="179" r="10" fill="#FFC86B"/><circle cx="259" cy="179" r="10" fill="#4EE0A1"/>
  <rect x="208" y="252" width="360" height="316" rx="24" fill="#0D141A" stroke="rgba(255,255,255,.08)"/>
  <rect x="610" y="252" width="364" height="316" rx="24" fill="#0D141A" stroke="rgba(255,255,255,.08)"/>
  <path d="M278 340h164c18 0 32 14 32 32v38c0 18-14 32-32 32H320l-42 42v-42h0c-18 0-32-14-32-32v-38c0-18 14-32 32-32Z" fill="#5AD3C7" fill-opacity=".20"/>
  <path d="M708 406h132c18 0 32-14 32-32v-20c0-18-14-32-32-32H692c-18 0-32 14-32 32v18c0 18 14 32 32 32h16l34 34v-34Z" fill="#7CB4FF" fill-opacity=".18"/>
  <path d="M742 348h0v84" stroke="#EAF2F5" stroke-opacity=".7" stroke-width="12" stroke-linecap="round"/>
  <path d="M700 390h84" stroke="#EAF2F5" stroke-opacity=".7" stroke-width="12" stroke-linecap="round"/>
  <rect x="246" y="484" width="170" height="20" rx="10" fill="#EAF2F5" fill-opacity=".8"/>
  <rect x="246" y="520" width="240" height="14" rx="7" fill="#8CA0AE" fill-opacity=".28"/>
  <rect x="650" y="484" width="228" height="16" rx="8" fill="#8CA0AE" fill-opacity=".30"/>
  <rect x="650" y="516" width="158" height="16" rx="8" fill="#5AD3C7" fill-opacity=".22"/>
  <text x="170" y="96" fill="#EAF2F5" font-family="Arial, Helvetica, sans-serif" font-size="34" font-weight="700">hospital_chatbot</text>
  <text x="170" y="126" fill="#8CA0AE" font-family="Arial, Helvetica, sans-serif" font-size="16">AI assistant for appointments and basic medical queries.</text>
</svg>
