<svg width="1200" height="800" viewBox="0 0 1200 800" fill="none" xmlns="http://www.w3.org/2000/svg">
  <defs>
    <linearGradient id="bg" x1="150" y1="100" x2="1050" y2="700">
      <stop stop-color="#091017"/>
      <stop offset="1" stop-color="#121823"/>
    </linearGradient>
    <filter id="blur" x="-20%" y="-20%" width="140%" height="140%">
      <feGaussianBlur stdDeviation="24"/>
    </filter>
  </defs>
  <rect width="1200" height="800" rx="44" fill="url(#bg)"/>
  <circle cx="280" cy="180" r="118" fill="#7CB4FF" fill-opacity=".12" filter="url(#blur)"/>
  <rect x="136" y="120" width="928" height="560" rx="34" fill="#111922" stroke="rgba(255,255,255,.10)"/>
  <rect x="168" y="154" width="864" height="50" rx="18" fill="#0D141A"/>
  <circle cx="203" cy="179" r="10" fill="#FF6A6A"/><circle cx="231" cy="179" r="10" fill="#FFC86B"/><circle cx="259" cy="179" r="10" fill="#4EE0A1"/>
  <rect x="198" y="250" width="300" height="320" rx="24" fill="#0D141A" stroke="rgba(255,255,255,.08)"/>
  <rect x="530" y="250" width="390" height="320" rx="24" fill="#0D141A" stroke="rgba(255,255,255,.08)"/>
  <rect x="236" y="292" width="220" height="18" rx="9" fill="#EAF2F5" fill-opacity=".8"/>
  <rect x="236" y="338" width="120" height="120" rx="28" fill="#5AD3C7" fill-opacity=".18"/>
  <rect x="236" y="482" width="180" height="16" rx="8" fill="#8CA0AE" fill-opacity=".30"/>
  <rect x="562" y="292" width="170" height="36" rx="18" fill="#5AD3C7" fill-opacity=".22"/>
  <rect x="754" y="292" width="126" height="36" rx="18" fill="#7CB4FF" fill-opacity=".20"/>
  <rect x="562" y="354" width="312" height="18" rx="9" fill="#8CA0AE" fill-opacity=".32"/>
  <rect x="562" y="390" width="278" height="18" rx="9" fill="#8CA0AE" fill-opacity=".22"/>
  <rect x="562" y="462" width="98" height="78" rx="20" fill="#4EE0A1" fill-opacity=".20"/>
  <rect x="674" y="462" width="98" height="78" rx="20" fill="#7CB4FF" fill-opacity=".20"/>
  <rect x="786" y="462" width="98" height="78" rx="20" fill="#5AD3C7" fill-opacity=".16"/>
  <text x="170" y="96" fill="#EAF2F5" font-family="Arial, Helvetica, sans-serif" font-size="34" font-weight="700">elms</text>
  <text x="170" y="126" fill="#8CA0AE" font-family="Arial, Helvetica, sans-serif" font-size="16">Electronic Leave Management System for employee leave tracking.</text>
</svg>
